G04 Generated by Ultiboard 14.2 *
%FSLAX34Y34*%
%MOMM*%

%ADD10C,0.0001*%
%ADD11C,0.0010*%
%ADD12C,0.0933*%
%ADD13C,0.2000*%
%ADD14C,0.2032*%
%ADD15C,0.1270*%


G04 ColorRGB FFFF00 for the following layer *
%LNSiebdruck oben*%
%LPD*%
G54D10*
G54D11*
G36*
X7765Y47256D02*
X7765Y47256D01*
X11816Y23864D01*
X11816Y47256D01*
X7765Y47256D01*
D02*
G37*
X11816Y23864D01*
X11816Y47256D01*
X7765Y47256D01*
G36*
X11816Y23864D02*
X11816Y23864D01*
X7765Y47256D01*
X7765Y37586D01*
X11816Y23864D01*
D02*
G37*
X7765Y47256D01*
X7765Y37586D01*
X11816Y23864D01*
G36*
X7765Y37586D02*
X7765Y37586D01*
X7765Y33534D01*
X11816Y23864D01*
X7765Y37586D01*
D02*
G37*
X7765Y33534D01*
X11816Y23864D01*
X7765Y37586D01*
G36*
X7765Y33534D02*
X7765Y33534D01*
X7765Y37586D01*
X-1906Y37586D01*
X7765Y33534D01*
D02*
G37*
X7765Y37586D01*
X-1906Y37586D01*
X7765Y33534D01*
G36*
X-1906Y37586D02*
X-1906Y37586D01*
X-1906Y33534D01*
X7765Y33534D01*
X-1906Y37586D01*
D02*
G37*
X-1906Y33534D01*
X7765Y33534D01*
X-1906Y37586D01*
G36*
X11816Y33534D02*
X11816Y33534D01*
X21487Y33534D01*
X11816Y37586D01*
X11816Y33534D01*
D02*
G37*
X21487Y33534D01*
X11816Y37586D01*
X11816Y33534D01*
G36*
X11816Y33534D01*
X11816Y47256D01*
X11816Y33534D01*
D02*
G37*
X11816Y47256D01*
X11816Y33534D01*
G36*
X11816Y33534D01*
X11816Y47256D01*
X11816Y23864D01*
X11816Y33534D01*
D02*
G37*
X11816Y47256D01*
X11816Y23864D01*
X11816Y33534D01*
G36*
X11816Y37586D02*
X11816Y37586D01*
X21487Y33534D01*
X21487Y37586D01*
X11816Y37586D01*
D02*
G37*
X21487Y33534D01*
X21487Y37586D01*
X11816Y37586D01*
G36*
X11816Y23864D02*
X11816Y23864D01*
X7765Y33534D01*
X7765Y23864D01*
X11816Y23864D01*
D02*
G37*
X7765Y33534D01*
X7765Y23864D01*
X11816Y23864D01*
G36*
X13070Y136172D02*
X13070Y136172D01*
X8705Y136172D01*
X8705Y122908D01*
X13070Y136172D01*
D02*
G37*
X8705Y136172D01*
X8705Y122908D01*
X13070Y136172D01*
G36*
X13070Y136172D01*
X8705Y122908D01*
X13070Y122908D01*
X13070Y136172D01*
D02*
G37*
X8705Y122908D01*
X13070Y122908D01*
X13070Y136172D01*
G36*
X88355Y275037D02*
X88355Y275037D01*
X92406Y251645D01*
X92406Y275037D01*
X88355Y275037D01*
D02*
G37*
X92406Y251645D01*
X92406Y275037D01*
X88355Y275037D01*
G36*
X92406Y251645D02*
X92406Y251645D01*
X88355Y275037D01*
X88355Y265367D01*
X92406Y251645D01*
D02*
G37*
X88355Y275037D01*
X88355Y265367D01*
X92406Y251645D01*
G36*
X88355Y265367D02*
X88355Y265367D01*
X88355Y261315D01*
X92406Y251645D01*
X88355Y265367D01*
D02*
G37*
X88355Y261315D01*
X92406Y251645D01*
X88355Y265367D01*
G36*
X88355Y261315D02*
X88355Y261315D01*
X88355Y265367D01*
X78684Y265367D01*
X88355Y261315D01*
D02*
G37*
X88355Y265367D01*
X78684Y265367D01*
X88355Y261315D01*
G36*
X78684Y265367D02*
X78684Y265367D01*
X78684Y261315D01*
X88355Y261315D01*
X78684Y265367D01*
D02*
G37*
X78684Y261315D01*
X88355Y261315D01*
X78684Y265367D01*
G36*
X92406Y261315D02*
X92406Y261315D01*
X102077Y261315D01*
X92406Y265367D01*
X92406Y261315D01*
D02*
G37*
X102077Y261315D01*
X92406Y265367D01*
X92406Y261315D01*
G36*
X92406Y261315D01*
X92406Y275037D01*
X92406Y261315D01*
D02*
G37*
X92406Y275037D01*
X92406Y261315D01*
G36*
X92406Y261315D01*
X92406Y275037D01*
X92406Y251645D01*
X92406Y261315D01*
D02*
G37*
X92406Y275037D01*
X92406Y251645D01*
X92406Y261315D01*
G36*
X92406Y265367D02*
X92406Y265367D01*
X102077Y261315D01*
X102077Y265367D01*
X92406Y265367D01*
D02*
G37*
X102077Y261315D01*
X102077Y265367D01*
X92406Y265367D01*
G36*
X92406Y251645D02*
X92406Y251645D01*
X88355Y261315D01*
X88355Y251645D01*
X92406Y251645D01*
D02*
G37*
X88355Y261315D01*
X88355Y251645D01*
X92406Y251645D01*
G36*
X88355Y402037D02*
X88355Y402037D01*
X92406Y378645D01*
X92406Y402037D01*
X88355Y402037D01*
D02*
G37*
X92406Y378645D01*
X92406Y402037D01*
X88355Y402037D01*
G36*
X92406Y378645D02*
X92406Y378645D01*
X88355Y402037D01*
X88355Y392367D01*
X92406Y378645D01*
D02*
G37*
X88355Y402037D01*
X88355Y392367D01*
X92406Y378645D01*
G36*
X88355Y392367D02*
X88355Y392367D01*
X88355Y388315D01*
X92406Y378645D01*
X88355Y392367D01*
D02*
G37*
X88355Y388315D01*
X92406Y378645D01*
X88355Y392367D01*
G36*
X88355Y388315D02*
X88355Y388315D01*
X88355Y392367D01*
X78684Y392367D01*
X88355Y388315D01*
D02*
G37*
X88355Y392367D01*
X78684Y392367D01*
X88355Y388315D01*
G36*
X78684Y392367D02*
X78684Y392367D01*
X78684Y388315D01*
X88355Y388315D01*
X78684Y392367D01*
D02*
G37*
X78684Y388315D01*
X88355Y388315D01*
X78684Y392367D01*
G36*
X92406Y388315D02*
X92406Y388315D01*
X102077Y388315D01*
X92406Y392367D01*
X92406Y388315D01*
D02*
G37*
X102077Y388315D01*
X92406Y392367D01*
X92406Y388315D01*
G36*
X92406Y388315D01*
X92406Y402037D01*
X92406Y388315D01*
D02*
G37*
X92406Y402037D01*
X92406Y388315D01*
G36*
X92406Y388315D01*
X92406Y402037D01*
X92406Y378645D01*
X92406Y388315D01*
D02*
G37*
X92406Y402037D01*
X92406Y378645D01*
X92406Y388315D01*
G36*
X92406Y392367D02*
X92406Y392367D01*
X102077Y388315D01*
X102077Y392367D01*
X92406Y392367D01*
D02*
G37*
X102077Y388315D01*
X102077Y392367D01*
X92406Y392367D01*
G36*
X92406Y378645D02*
X92406Y378645D01*
X88355Y388315D01*
X88355Y378645D01*
X92406Y378645D01*
D02*
G37*
X88355Y388315D01*
X88355Y378645D01*
X92406Y378645D01*
G36*
X92655Y296795D02*
X92655Y296795D01*
X88290Y296795D01*
X88290Y283532D01*
X92655Y296795D01*
D02*
G37*
X88290Y296795D01*
X88290Y283532D01*
X92655Y296795D01*
G36*
X92655Y296795D01*
X88290Y283532D01*
X92655Y283532D01*
X92655Y296795D01*
D02*
G37*
X88290Y283532D01*
X92655Y283532D01*
X92655Y296795D01*
G36*
X92655Y426335D02*
X92655Y426335D01*
X88290Y426335D01*
X88290Y413072D01*
X92655Y426335D01*
D02*
G37*
X88290Y426335D01*
X88290Y413072D01*
X92655Y426335D01*
G36*
X92655Y426335D01*
X88290Y413072D01*
X92655Y413072D01*
X92655Y426335D01*
D02*
G37*
X88290Y413072D01*
X92655Y413072D01*
X92655Y426335D01*
G54D12*
X14230Y52614D02*
X14230Y56597D01*
X12230Y58588D01*
X11230Y58588D01*
X9230Y56597D01*
X7230Y58588D01*
X6230Y58588D01*
X4230Y56597D01*
X4230Y53610D01*
X4230Y52614D01*
X9230Y53610D02*
X9230Y56597D01*
X4230Y53610D02*
X14230Y53610D01*
X7230Y62570D02*
X7230Y65557D01*
X8230Y66552D01*
X13230Y66552D01*
X14230Y65557D01*
X14230Y62570D01*
X13230Y61574D01*
X11230Y61574D01*
X10230Y62570D01*
X10230Y66552D01*
X13230Y66552D02*
X14230Y67548D01*
X13230Y75512D02*
X14230Y74517D01*
X13230Y73521D01*
X4230Y73521D01*
X7230Y71530D02*
X7230Y75512D01*
X13230Y84472D02*
X14230Y83477D01*
X13230Y82481D01*
X4230Y82481D01*
X7230Y80490D02*
X7230Y84472D01*
X12230Y94428D02*
X14230Y92437D01*
X14230Y90445D01*
X12230Y88454D01*
X9230Y88454D01*
X7230Y90445D01*
X7230Y92437D01*
X9230Y94428D01*
X10230Y93432D01*
X10230Y88454D01*
X10230Y97414D02*
X7230Y100401D01*
X7230Y101397D01*
X9230Y103388D01*
X14230Y97414D02*
X7230Y97414D01*
X17230Y106374D02*
X17230Y107370D01*
X7230Y112348D01*
X7230Y106374D02*
X13230Y109361D01*
X39480Y216896D02*
X41480Y218887D01*
X41480Y220878D01*
X39480Y222869D01*
X31480Y222869D01*
X39480Y225856D02*
X41480Y227847D01*
X41480Y229838D01*
X39480Y231829D01*
X36480Y231829D01*
X34480Y229838D01*
X34480Y227847D01*
X36480Y225856D01*
X39480Y225856D01*
X44480Y234816D02*
X44480Y235811D01*
X34480Y240789D01*
X34480Y234816D02*
X40480Y237802D01*
X39480Y243776D02*
X41480Y245767D01*
X41480Y247758D01*
X39480Y249749D01*
X36480Y243776D01*
X34480Y245767D01*
X34480Y247758D01*
X36480Y249749D01*
X40480Y257713D02*
X41480Y256718D01*
X40480Y255722D01*
X31480Y255722D01*
X34480Y253731D02*
X34480Y257713D01*
X41480Y264682D02*
X35480Y264682D01*
X33480Y264682D02*
X32480Y264682D01*
X40480Y275633D02*
X41480Y274638D01*
X41480Y272647D01*
X39480Y270656D01*
X36480Y270656D01*
X34480Y272647D01*
X34480Y274638D01*
X35480Y275633D01*
X37480Y279616D02*
X37480Y281607D01*
X34480Y284593D01*
X37480Y281607D02*
X41480Y284593D01*
X41480Y279616D02*
X31480Y279616D01*
X41480Y348376D02*
X41480Y352358D01*
X39480Y354349D01*
X33480Y354349D01*
X31480Y352358D01*
X31480Y348376D01*
X31480Y349371D02*
X41480Y349371D01*
X41480Y360322D02*
X35480Y360322D01*
X33480Y360322D02*
X32480Y360322D01*
X39480Y366296D02*
X41480Y368287D01*
X41480Y370278D01*
X39480Y372269D01*
X36480Y366296D01*
X34480Y368287D01*
X34480Y370278D01*
X36480Y372269D01*
X39480Y375256D02*
X41480Y377247D01*
X41480Y379238D01*
X39480Y381229D01*
X36480Y381229D01*
X34480Y379238D01*
X34480Y377247D01*
X36480Y375256D01*
X44480Y375256D02*
X34480Y375256D01*
X31480Y385211D02*
X39480Y385211D01*
X41480Y387202D01*
X34480Y394171D02*
X34480Y397158D01*
X35480Y398153D01*
X40480Y398153D01*
X41480Y397158D01*
X41480Y394171D01*
X40480Y393176D01*
X38480Y393176D01*
X37480Y394171D01*
X37480Y398153D01*
X40480Y398153D02*
X41480Y399149D01*
X44480Y402136D02*
X44480Y403131D01*
X34480Y408109D01*
X34480Y402136D02*
X40480Y405122D01*
G54D13*
X22860Y124460D02*
X48260Y124460D01*
X48260Y22860D01*
X22860Y22860D01*
X22860Y124460D01*
X68580Y99060D02*
X119380Y99060D01*
X119380Y73660D01*
X68580Y73660D01*
X68580Y99060D01*
X48260Y302260D02*
X73660Y302260D01*
X73660Y200660D01*
X48260Y200660D01*
X48260Y302260D01*
X48260Y429260D02*
X73660Y429260D01*
X73660Y327660D01*
X48260Y327660D01*
X48260Y429260D01*
G54D14*
X138600Y463760D02*
X138600Y13760D01*
X318600Y13760D01*
X318600Y463760D01*
X223600Y463760D02*
X223619Y463324D01*
X223676Y462892D01*
X223770Y462466D01*
X223902Y462050D01*
X224068Y461647D01*
X224270Y461260D01*
X224504Y460892D01*
X224770Y460546D01*
X225064Y460224D01*
X225386Y459930D01*
X225732Y459664D01*
X226100Y459430D01*
X226487Y459228D01*
X226890Y459062D01*
X227306Y458930D01*
X227732Y458836D01*
X228164Y458779D01*
X228600Y458760D01*
X229036Y458779D01*
X229468Y458836D01*
X229894Y458930D01*
X230310Y459062D01*
X230713Y459228D01*
X231100Y459430D01*
X231468Y459664D01*
X231814Y459930D01*
X232136Y460224D01*
X232430Y460546D01*
X232696Y460892D01*
X232930Y461260D01*
X233132Y461647D01*
X233298Y462050D01*
X233430Y462466D01*
X233524Y462892D01*
X233581Y463324D01*
X233600Y463760D01*
X318600Y463760D02*
X233600Y463760D01*
X223600Y463760D02*
X138600Y463760D01*
X346710Y568960D02*
X346710Y314960D01*
X638810Y568960D02*
X346710Y568960D01*
X346710Y314960D02*
X638810Y314960D01*
X638810Y568960D01*
G54D15*
X-2540Y-2540D02*
X-2540Y56388D01*
X-2540Y-2540D02*
X63500Y-2540D01*
X657860Y-2540D02*
X591820Y-2540D01*
X657860Y-2540D02*
X657860Y56388D01*
X657860Y586740D02*
X657860Y527812D01*
X657860Y586740D02*
X591820Y586740D01*
X-2540Y586740D02*
X63500Y586740D01*
X-2540Y586740D02*
X-2540Y527812D01*
X-52540Y-2540D02*
X-152540Y-2540D01*
X-102540Y-52540D02*
X-102540Y47460D01*
X-140040Y-2540D02*
G75*
D01*
G02X-140040Y-2540I37500J0*
G01*
X707860Y-2540D02*
X807860Y-2540D01*
X757860Y-52540D02*
X757860Y47460D01*
X720360Y-2540D02*
G75*
D01*
G02X720360Y-2540I37500J0*
G01*
X745360Y-2540D02*
G75*
D01*
G02X745360Y-2540I12500J0*
G01*
X-52540Y586740D02*
X-152540Y586740D01*
X-102540Y536740D02*
X-102540Y636740D01*
X-140040Y586740D02*
G75*
D01*
G02X-140040Y586740I37500J0*
G01*
X-127540Y586740D02*
G75*
D01*
G02X-127540Y586740I25000J0*
G01*
X-115040Y586740D02*
G75*
D01*
G02X-115040Y586740I12500J0*
G01*

M02*
