G04 Generated by Ultiboard 14.2 *
%FSLAX34Y34*%
%MOMM*%

%ADD10C,0.0001*%
%ADD11C,3.2000*%
%ADD12C,1.0000*%


G04 ColorRGB 000000 for the following layer *
%LNBohrung-Copper Top-Copper Bottom*%
%LPD*%
G54D11*
X35560Y551180D03*
X93980Y35560D03*
X566420Y543560D03*
X619760Y35560D03*
G54D12*
X81280Y86360D03*
X106680Y86360D03*
X152400Y416560D03*
X152400Y391160D03*
X152400Y365760D03*
X152400Y340360D03*
X152400Y314960D03*
X152400Y289560D03*
X152400Y264160D03*
X152400Y238760D03*
X152400Y213360D03*
X152400Y187960D03*
X152400Y162560D03*
X152400Y137160D03*
X152400Y111760D03*
X152400Y86360D03*
X152400Y60960D03*
X304800Y416560D03*
X304800Y391160D03*
X304800Y365760D03*
X304800Y340360D03*
X304800Y314960D03*
X304800Y289560D03*
X304800Y264160D03*
X304800Y238760D03*
X304800Y213360D03*
X304800Y187960D03*
X304800Y162560D03*
X304800Y137160D03*
X304800Y111760D03*
X304800Y86360D03*
X304800Y60960D03*
X35560Y35560D03*
X35560Y60960D03*
X35560Y86360D03*
X35560Y111760D03*
X60960Y213360D03*
X60960Y238760D03*
X60960Y264160D03*
X60960Y289560D03*
X60960Y340360D03*
X60960Y365760D03*
X60960Y391160D03*
X60960Y416560D03*
X365760Y518160D03*
X365760Y492760D03*
X365760Y467360D03*
X365760Y441960D03*
X365760Y416560D03*
X365760Y391160D03*
X365760Y365760D03*
X365760Y340360D03*
X619760Y441960D03*
X365760Y543560D03*
X619760Y543560D03*
X619760Y518160D03*
X619760Y492760D03*
X619760Y467360D03*

M02*
