G04 Generated by Ultiboard 14.2 *
%FSLAX34Y34*%
%MOMM*%

%ADD10C,0.0001*%
%ADD11C,0.1270*%


G04 ColorRGB FF14FF for the following layer *
%LNSilkscreen Bottom*%
%LPD*%
G54D10*
G54D11*
X-2540Y-2540D02*
X-2540Y57968D01*
X-2540Y-2540D02*
X72968Y-2540D01*
X752540Y-2540D02*
X677032Y-2540D01*
X752540Y-2540D02*
X752540Y57968D01*
X752540Y602540D02*
X752540Y542032D01*
X752540Y602540D02*
X677032Y602540D01*
X-2540Y602540D02*
X72968Y602540D01*
X-2540Y602540D02*
X-2540Y542032D01*
X-52540Y-2540D02*
X-152540Y-2540D01*
X-102540Y-52540D02*
X-102540Y47460D01*
X-140040Y-2540D02*
G75*
D01*
G02X-140040Y-2540I37500J0*
G01*
X802540Y-2540D02*
X902540Y-2540D01*
X852540Y-52540D02*
X852540Y47460D01*
X815040Y-2540D02*
G75*
D01*
G02X815040Y-2540I37500J0*
G01*
X840040Y-2540D02*
G75*
D01*
G02X840040Y-2540I12500J0*
G01*
X-52540Y602540D02*
X-152540Y602540D01*
X-102540Y552540D02*
X-102540Y652540D01*
X-140040Y602540D02*
G75*
D01*
G02X-140040Y602540I37500J0*
G01*
X-127540Y602540D02*
G75*
D01*
G02X-127540Y602540I25000J0*
G01*
X-115040Y602540D02*
G75*
D01*
G02X-115040Y602540I12500J0*
G01*

M02*
