G04 Generated by Ultiboard 14.2 *
%FSLAX34Y34*%
%MOMM*%

%ADD10C,0.0001*%
%ADD11C,0.1270*%
%ADD12C,3.2000*%
%ADD13R,0.9000X0.9500*%
%ADD14C,1.7000*%
%ADD15R,1.7000X1.7000*%
%ADD16C,1.5000*%
%ADD17R,1.8500X1.2000*%
%ADD18C,1.6764*%
%ADD19R,1.6764X1.6764*%


G04 ColorRGB FF00CC for the following layer *
%LNL_uc100f6tstoppmaske oben*%
%LPD*%
G54D10*
G54D11*
X-2540Y-2540D02*
X-2540Y57968D01*
X-2540Y-2540D02*
X72968Y-2540D01*
X752540Y-2540D02*
X677032Y-2540D01*
X752540Y-2540D02*
X752540Y57968D01*
X752540Y602540D02*
X752540Y542032D01*
X752540Y602540D02*
X677032Y602540D01*
X-2540Y602540D02*
X72968Y602540D01*
X-2540Y602540D02*
X-2540Y542032D01*
X-52540Y-2540D02*
X-152540Y-2540D01*
X-102540Y-52540D02*
X-102540Y47460D01*
X-140040Y-2540D02*
G75*
D01*
G02X-140040Y-2540I37500J0*
G01*
X802540Y-2540D02*
X902540Y-2540D01*
X852540Y-52540D02*
X852540Y47460D01*
X815040Y-2540D02*
G75*
D01*
G02X815040Y-2540I37500J0*
G01*
X840040Y-2540D02*
G75*
D01*
G02X840040Y-2540I12500J0*
G01*
X-52540Y602540D02*
X-152540Y602540D01*
X-102540Y552540D02*
X-102540Y652540D01*
X-140040Y602540D02*
G75*
D01*
G02X-140040Y602540I37500J0*
G01*
X-127540Y602540D02*
G75*
D01*
G02X-127540Y602540I25000J0*
G01*
X-115040Y602540D02*
G75*
D01*
G02X-115040Y602540I12500J0*
G01*
G54D12*
X35560Y35560D03*
X35560Y563880D03*
X716280Y35560D03*
X609600Y563880D03*
G54D13*
X433960Y172720D03*
X449960Y172720D03*
G54D14*
X441960Y528320D03*
X441960Y502920D03*
X441960Y477520D03*
X441960Y452120D03*
X441960Y426720D03*
X441960Y401320D03*
X441960Y375920D03*
X441960Y350520D03*
X695960Y452120D03*
X695960Y553720D03*
X695960Y528320D03*
X695960Y502920D03*
X695960Y477520D03*
X86360Y45720D03*
X86360Y71120D03*
X86360Y96520D03*
X86360Y121920D03*
X574040Y35560D03*
X574040Y60960D03*
X137160Y96520D03*
X162560Y96520D03*
X162560Y187960D03*
X162560Y213360D03*
X162560Y238760D03*
X86360Y187960D03*
X86360Y213360D03*
X162560Y325120D03*
X162560Y350520D03*
X162560Y375920D03*
X162560Y401320D03*
X86360Y477520D03*
X86360Y452120D03*
X86360Y426720D03*
X86360Y401320D03*
X162560Y477520D03*
X162560Y502920D03*
X162560Y528320D03*
X162560Y553720D03*
X487680Y50800D03*
X487680Y76200D03*
X487680Y101600D03*
X695960Y274320D03*
X670560Y274320D03*
X619760Y274320D03*
X645160Y274320D03*
X568960Y274320D03*
X594360Y274320D03*
X568960Y248920D03*
X594360Y248920D03*
X619760Y248920D03*
X645160Y248920D03*
X670560Y248920D03*
X695960Y248920D03*
X568960Y299720D03*
X594360Y299720D03*
X619760Y299720D03*
X645160Y299720D03*
X670560Y299720D03*
X695960Y299720D03*
X568960Y223520D03*
X594360Y223520D03*
X619760Y223520D03*
X645160Y223520D03*
X670560Y223520D03*
X695960Y223520D03*
X594360Y198120D03*
X619760Y198120D03*
X645160Y198120D03*
X670560Y198120D03*
X695960Y198120D03*
X619760Y172720D03*
X645160Y172720D03*
X670560Y172720D03*
X695960Y172720D03*
G54D15*
X441960Y553720D03*
G54D16*
X228600Y426720D03*
X228600Y401320D03*
X228600Y375920D03*
X228600Y350520D03*
X228600Y325120D03*
X228600Y299720D03*
X228600Y274320D03*
X228600Y248920D03*
X228600Y223520D03*
X228600Y198120D03*
X228600Y172720D03*
X228600Y147320D03*
X228600Y121920D03*
X228600Y96520D03*
X228600Y71120D03*
X381000Y426720D03*
X381000Y401320D03*
X381000Y375920D03*
X381000Y350520D03*
X381000Y325120D03*
X381000Y299720D03*
X381000Y274320D03*
X381000Y248920D03*
X381000Y223520D03*
X381000Y198120D03*
X381000Y172720D03*
X381000Y147320D03*
X381000Y121920D03*
X381000Y96520D03*
X381000Y71120D03*
G54D17*
X259080Y511820D03*
X259080Y544820D03*
X304800Y511820D03*
X304800Y544820D03*
X350520Y511820D03*
X350520Y544820D03*
G54D18*
X513080Y198120D03*
X513080Y223520D03*
G54D19*
X513080Y172720D03*

M02*
