G04 Generated by Ultiboard 14.2 *
%FSLAX34Y34*%
%MOMM*%

%ADD10C,0.0001*%
%ADD11C,0.0933*%
%ADD12C,0.0010*%
%ADD13C,0.1556*%
%ADD14C,0.2000*%
%ADD15C,0.2032*%
%ADD16C,0.2500*%
%ADD17C,0.1129*%
%ADD18C,0.1270*%


G04 ColorRGB FFFF00 for the following layer *
%LNSilkscreen Top*%
%LPD*%
G54D10*
G54D11*
X133080Y168636D02*
X143080Y169631D01*
X139080Y171622D01*
X143080Y173613D01*
X133080Y174609D01*
X136080Y178591D02*
X136080Y181578D01*
X137080Y182573D01*
X142080Y182573D01*
X143080Y181578D01*
X143080Y178591D01*
X142080Y177596D01*
X140080Y177596D01*
X139080Y178591D01*
X139080Y182573D01*
X142080Y182573D02*
X143080Y183569D01*
X142080Y191533D02*
X143080Y190538D01*
X142080Y189542D01*
X133080Y189542D01*
X136080Y187551D02*
X136080Y191533D01*
X141080Y201489D02*
X143080Y199498D01*
X143080Y197507D01*
X141080Y195516D01*
X138080Y195516D01*
X136080Y197507D01*
X136080Y199498D01*
X138080Y201489D01*
X139080Y200493D01*
X139080Y195516D01*
X139080Y204476D02*
X136080Y207462D01*
X136080Y208458D01*
X138080Y210449D01*
X143080Y204476D02*
X136080Y204476D01*
X143080Y213436D02*
X133080Y213436D01*
X133080Y217418D01*
X135080Y219409D01*
X136080Y219409D01*
X138080Y217418D01*
X138080Y213436D01*
X143080Y225382D02*
X137080Y225382D01*
X135080Y225382D02*
X134080Y225382D01*
X141080Y231356D02*
X143080Y233347D01*
X143080Y235338D01*
X141080Y237329D01*
X138080Y231356D01*
X136080Y233347D01*
X136080Y235338D01*
X138080Y237329D01*
X142080Y245293D02*
X143080Y244298D01*
X142080Y243302D01*
X133080Y243302D01*
X136080Y241311D02*
X136080Y245293D01*
X141080Y249276D02*
X143080Y251267D01*
X143080Y253258D01*
X141080Y255249D01*
X138080Y255249D01*
X136080Y253258D01*
X136080Y251267D01*
X138080Y249276D01*
X141080Y249276D01*
X133080Y259231D02*
X141080Y259231D01*
X143080Y261222D01*
X140265Y323301D02*
X130265Y323301D01*
X140265Y329274D02*
X130265Y329274D01*
X135265Y323301D02*
X135265Y329274D01*
X138265Y338234D02*
X140265Y336243D01*
X140265Y334252D01*
X138265Y332261D01*
X132265Y332261D01*
X130265Y334252D01*
X130265Y336243D01*
X132265Y338234D01*
X136265Y341221D02*
X136265Y347194D01*
X138265Y350181D02*
X140265Y352172D01*
X140265Y354163D01*
X138265Y356154D01*
X132265Y350181D01*
X130265Y352172D01*
X130265Y354163D01*
X132265Y356154D01*
X140265Y359141D02*
X130265Y359141D01*
X130265Y363123D01*
X132265Y365114D01*
X133265Y365114D01*
X135265Y363123D01*
X135265Y359141D01*
X135265Y360136D02*
X140265Y365114D01*
X132265Y368101D02*
X130265Y370092D01*
X130265Y372083D01*
X132265Y374074D01*
X138265Y374074D01*
X140265Y372083D01*
X140265Y370092D01*
X138265Y368101D01*
X132265Y368101D01*
X132265Y374074D02*
X138265Y368101D01*
X136265Y383034D02*
X136265Y377061D01*
X130265Y382039D01*
X140265Y382039D01*
X140265Y381043D02*
X140265Y383034D01*
X130265Y394981D02*
X140265Y394981D01*
X140265Y400954D01*
X64065Y402041D02*
X54065Y402041D01*
X64065Y408014D02*
X54065Y408014D01*
X59065Y402041D02*
X59065Y408014D01*
X62065Y416974D02*
X64065Y414983D01*
X64065Y412992D01*
X62065Y411001D01*
X56065Y411001D01*
X54065Y412992D01*
X54065Y414983D01*
X56065Y416974D01*
X60065Y419961D02*
X60065Y425934D01*
X62065Y428921D02*
X64065Y430912D01*
X64065Y432903D01*
X62065Y434894D01*
X56065Y428921D01*
X54065Y430912D01*
X54065Y432903D01*
X56065Y434894D01*
X64065Y437881D02*
X54065Y437881D01*
X54065Y441863D01*
X56065Y443854D01*
X57065Y443854D01*
X59065Y441863D01*
X59065Y437881D01*
X59065Y438876D02*
X64065Y443854D01*
X56065Y446841D02*
X54065Y448832D01*
X54065Y450823D01*
X56065Y452814D01*
X62065Y452814D01*
X64065Y450823D01*
X64065Y448832D01*
X62065Y446841D01*
X56065Y446841D01*
X56065Y452814D02*
X62065Y446841D01*
X60065Y461774D02*
X60065Y455801D01*
X54065Y460779D01*
X64065Y460779D01*
X64065Y459783D02*
X64065Y461774D01*
X64065Y473721D02*
X54065Y473721D01*
X54065Y479694D01*
X59065Y473721D02*
X59065Y477703D01*
X140265Y478241D02*
X130265Y478241D01*
X140265Y484214D02*
X130265Y484214D01*
X135265Y478241D02*
X135265Y484214D01*
X138265Y493174D02*
X140265Y491183D01*
X140265Y489192D01*
X138265Y487201D01*
X132265Y487201D01*
X130265Y489192D01*
X130265Y491183D01*
X132265Y493174D01*
X136265Y496161D02*
X136265Y502134D01*
X138265Y505121D02*
X140265Y507112D01*
X140265Y509103D01*
X138265Y511094D01*
X132265Y505121D01*
X130265Y507112D01*
X130265Y509103D01*
X132265Y511094D01*
X140265Y514081D02*
X130265Y514081D01*
X130265Y518063D01*
X132265Y520054D01*
X133265Y520054D01*
X135265Y518063D01*
X135265Y514081D01*
X135265Y515076D02*
X140265Y520054D01*
X132265Y523041D02*
X130265Y525032D01*
X130265Y527023D01*
X132265Y529014D01*
X138265Y529014D01*
X140265Y527023D01*
X140265Y525032D01*
X138265Y523041D01*
X132265Y523041D01*
X132265Y529014D02*
X138265Y523041D01*
X136265Y537974D02*
X136265Y532001D01*
X130265Y536979D01*
X140265Y536979D01*
X140265Y535983D02*
X140265Y537974D01*
X140265Y549921D02*
X130265Y549921D01*
X130265Y553903D01*
X132265Y555894D01*
X133265Y555894D01*
X135265Y553903D01*
X135265Y549921D01*
X135265Y550916D02*
X140265Y555894D01*
X62340Y184016D02*
X64340Y186007D01*
X64340Y187998D01*
X62340Y189989D01*
X56340Y184016D01*
X54340Y186007D01*
X54340Y187998D01*
X56340Y189989D01*
X62340Y192976D02*
X64340Y194967D01*
X64340Y196958D01*
X62340Y198949D01*
X59340Y198949D01*
X57340Y196958D01*
X57340Y194967D01*
X59340Y192976D01*
X62340Y192976D01*
X54340Y202931D02*
X62340Y202931D01*
X64340Y204922D01*
X57340Y211891D02*
X57340Y214878D01*
X58340Y215873D01*
X63340Y215873D01*
X64340Y214878D01*
X64340Y211891D01*
X63340Y210896D01*
X61340Y210896D01*
X60340Y211891D01*
X60340Y215873D01*
X63340Y215873D02*
X64340Y216869D01*
X60340Y219856D02*
X57340Y222842D01*
X57340Y223838D01*
X59340Y225829D01*
X64340Y219856D02*
X57340Y219856D01*
X554560Y28936D02*
X544560Y28936D01*
X549560Y31922D01*
X544560Y34909D01*
X554560Y34909D01*
X552560Y37896D02*
X554560Y39887D01*
X554560Y41878D01*
X552560Y43869D01*
X549560Y43869D01*
X547560Y41878D01*
X547560Y39887D01*
X549560Y37896D01*
X552560Y37896D01*
X553560Y51833D02*
X554560Y50838D01*
X553560Y49842D01*
X544560Y49842D01*
X547560Y47851D02*
X547560Y51833D01*
X552560Y55816D02*
X554560Y57807D01*
X554560Y59798D01*
X552560Y61789D01*
X549560Y61789D01*
X547560Y59798D01*
X547560Y57807D01*
X549560Y55816D01*
X552560Y55816D01*
X550560Y64776D02*
X547560Y67762D01*
X547560Y68758D01*
X549560Y70749D01*
X554560Y64776D02*
X547560Y64776D01*
X468200Y49256D02*
X458200Y49256D01*
X458200Y53238D01*
X460200Y55229D01*
X461200Y55229D01*
X463200Y53238D01*
X463200Y49256D01*
X463200Y50251D02*
X468200Y55229D01*
X461200Y58216D02*
X466200Y58216D01*
X468200Y60207D01*
X468200Y62198D01*
X466200Y64189D01*
X461200Y64189D01*
X466200Y64189D02*
X468200Y64189D01*
X466200Y73149D02*
X468200Y71158D01*
X468200Y69167D01*
X466200Y67176D01*
X464200Y67176D01*
X462200Y69167D01*
X462200Y71158D01*
X464200Y73149D01*
X458200Y73149D02*
X468200Y73149D01*
X466200Y82109D02*
X468200Y80118D01*
X468200Y78127D01*
X466200Y76136D01*
X464200Y76136D01*
X462200Y78127D01*
X462200Y80118D01*
X464200Y82109D01*
X458200Y82109D02*
X468200Y82109D01*
X466200Y91069D02*
X468200Y89078D01*
X468200Y87087D01*
X466200Y85096D01*
X463200Y85096D01*
X461200Y87087D01*
X461200Y89078D01*
X463200Y91069D01*
X464200Y90073D01*
X464200Y85096D01*
X464200Y94056D02*
X461200Y97042D01*
X461200Y98038D01*
X463200Y100029D01*
X468200Y94056D02*
X461200Y94056D01*
X64340Y61956D02*
X64340Y65938D01*
X62340Y67929D01*
X61340Y67929D01*
X59340Y65938D01*
X57340Y67929D01*
X56340Y67929D01*
X54340Y65938D01*
X54340Y62951D01*
X54340Y61956D01*
X59340Y62951D02*
X59340Y65938D01*
X54340Y62951D02*
X64340Y62951D01*
X57340Y71911D02*
X57340Y74898D01*
X58340Y75893D01*
X63340Y75893D01*
X64340Y74898D01*
X64340Y71911D01*
X63340Y70916D01*
X61340Y70916D01*
X60340Y71911D01*
X60340Y75893D01*
X63340Y75893D02*
X64340Y76889D01*
X63340Y84853D02*
X64340Y83858D01*
X63340Y82862D01*
X54340Y82862D01*
X57340Y80871D02*
X57340Y84853D01*
X63340Y93813D02*
X64340Y92818D01*
X63340Y91822D01*
X54340Y91822D01*
X57340Y89831D02*
X57340Y93813D01*
X62340Y103769D02*
X64340Y101778D01*
X64340Y99787D01*
X62340Y97796D01*
X59340Y97796D01*
X57340Y99787D01*
X57340Y101778D01*
X59340Y103769D01*
X60340Y102773D01*
X60340Y97796D01*
X60340Y106756D02*
X57340Y109742D01*
X57340Y110738D01*
X59340Y112729D01*
X64340Y106756D02*
X57340Y106756D01*
X67340Y115716D02*
X67340Y116711D01*
X57340Y121689D01*
X57340Y115716D02*
X63340Y118702D01*
G54D12*
G36*
X57875Y56597D02*
X57875Y56597D01*
X61926Y33205D01*
X61926Y56597D01*
X57875Y56597D01*
D02*
G37*
X61926Y33205D01*
X61926Y56597D01*
X57875Y56597D01*
G36*
X61926Y33205D02*
X61926Y33205D01*
X57875Y56597D01*
X57875Y46927D01*
X61926Y33205D01*
D02*
G37*
X57875Y56597D01*
X57875Y46927D01*
X61926Y33205D01*
G36*
X57875Y46927D02*
X57875Y46927D01*
X57875Y42875D01*
X61926Y33205D01*
X57875Y46927D01*
D02*
G37*
X57875Y42875D01*
X61926Y33205D01*
X57875Y46927D01*
G36*
X57875Y42875D02*
X57875Y42875D01*
X57875Y46927D01*
X48204Y46927D01*
X57875Y42875D01*
D02*
G37*
X57875Y46927D01*
X48204Y46927D01*
X57875Y42875D01*
G36*
X48204Y46927D02*
X48204Y46927D01*
X48204Y42875D01*
X57875Y42875D01*
X48204Y46927D01*
D02*
G37*
X48204Y42875D01*
X57875Y42875D01*
X48204Y46927D01*
G36*
X61926Y42875D02*
X61926Y42875D01*
X71597Y42875D01*
X61926Y46927D01*
X61926Y42875D01*
D02*
G37*
X71597Y42875D01*
X61926Y46927D01*
X61926Y42875D01*
G36*
X61926Y42875D01*
X61926Y56597D01*
X61926Y42875D01*
D02*
G37*
X61926Y56597D01*
X61926Y42875D01*
G36*
X61926Y42875D01*
X61926Y56597D01*
X61926Y33205D01*
X61926Y42875D01*
D02*
G37*
X61926Y56597D01*
X61926Y33205D01*
X61926Y42875D01*
G36*
X61926Y46927D02*
X61926Y46927D01*
X71597Y42875D01*
X71597Y46927D01*
X61926Y46927D01*
D02*
G37*
X71597Y42875D01*
X71597Y46927D01*
X61926Y46927D01*
G36*
X61926Y33205D02*
X61926Y33205D01*
X57875Y42875D01*
X57875Y33205D01*
X61926Y33205D01*
D02*
G37*
X57875Y42875D01*
X57875Y33205D01*
X61926Y33205D01*
G36*
X57875Y181057D02*
X57875Y181057D01*
X61926Y157665D01*
X61926Y181057D01*
X57875Y181057D01*
D02*
G37*
X61926Y157665D01*
X61926Y181057D01*
X57875Y181057D01*
G36*
X61926Y157665D02*
X61926Y157665D01*
X57875Y181057D01*
X57875Y171387D01*
X61926Y157665D01*
D02*
G37*
X57875Y181057D01*
X57875Y171387D01*
X61926Y157665D01*
G36*
X57875Y171387D02*
X57875Y171387D01*
X57875Y167335D01*
X61926Y157665D01*
X57875Y171387D01*
D02*
G37*
X57875Y167335D01*
X61926Y157665D01*
X57875Y171387D01*
G36*
X57875Y167335D02*
X57875Y167335D01*
X57875Y171387D01*
X48204Y171387D01*
X57875Y167335D01*
D02*
G37*
X57875Y171387D01*
X48204Y171387D01*
X57875Y167335D01*
G36*
X48204Y171387D02*
X48204Y171387D01*
X48204Y167335D01*
X57875Y167335D01*
X48204Y171387D01*
D02*
G37*
X48204Y167335D01*
X57875Y167335D01*
X48204Y171387D01*
G36*
X61926Y167335D02*
X61926Y167335D01*
X71597Y167335D01*
X61926Y171387D01*
X61926Y167335D01*
D02*
G37*
X71597Y167335D01*
X61926Y171387D01*
X61926Y167335D01*
G36*
X61926Y167335D01*
X61926Y181057D01*
X61926Y167335D01*
D02*
G37*
X61926Y181057D01*
X61926Y167335D01*
G36*
X61926Y167335D01*
X61926Y181057D01*
X61926Y157665D01*
X61926Y167335D01*
D02*
G37*
X61926Y181057D01*
X61926Y157665D01*
X61926Y167335D01*
G36*
X61926Y171387D02*
X61926Y171387D01*
X71597Y167335D01*
X71597Y171387D01*
X61926Y171387D01*
D02*
G37*
X71597Y167335D01*
X71597Y171387D01*
X61926Y171387D01*
G36*
X61926Y157665D02*
X61926Y157665D01*
X57875Y167335D01*
X57875Y157665D01*
X61926Y157665D01*
D02*
G37*
X57875Y167335D01*
X57875Y157665D01*
X61926Y157665D01*
G36*
X63180Y145513D02*
X63180Y145513D01*
X58815Y145513D01*
X58815Y132249D01*
X63180Y145513D01*
D02*
G37*
X58815Y145513D01*
X58815Y132249D01*
X63180Y145513D01*
G36*
X63180Y145513D01*
X58815Y132249D01*
X63180Y132249D01*
X63180Y145513D01*
D02*
G37*
X58815Y132249D01*
X63180Y132249D01*
X63180Y145513D01*
G36*
X64715Y248535D02*
X64715Y248535D01*
X60350Y248535D01*
X60350Y235272D01*
X64715Y248535D01*
D02*
G37*
X60350Y248535D01*
X60350Y235272D01*
X64715Y248535D01*
G36*
X64715Y248535D01*
X60350Y235272D01*
X64715Y235272D01*
X64715Y248535D01*
D02*
G37*
X60350Y235272D01*
X64715Y235272D01*
X64715Y248535D01*
G36*
X187415Y224237D02*
X187415Y224237D01*
X191466Y200845D01*
X191466Y224237D01*
X187415Y224237D01*
D02*
G37*
X191466Y200845D01*
X191466Y224237D01*
X187415Y224237D01*
G36*
X191466Y200845D02*
X191466Y200845D01*
X187415Y224237D01*
X187415Y214567D01*
X191466Y200845D01*
D02*
G37*
X187415Y224237D01*
X187415Y214567D01*
X191466Y200845D01*
G36*
X187415Y214567D02*
X187415Y214567D01*
X187415Y210515D01*
X191466Y200845D01*
X187415Y214567D01*
D02*
G37*
X187415Y210515D01*
X191466Y200845D01*
X187415Y214567D01*
G36*
X187415Y210515D02*
X187415Y210515D01*
X187415Y214567D01*
X177744Y214567D01*
X187415Y210515D01*
D02*
G37*
X187415Y214567D01*
X177744Y214567D01*
X187415Y210515D01*
G36*
X177744Y214567D02*
X177744Y214567D01*
X177744Y210515D01*
X187415Y210515D01*
X177744Y214567D01*
D02*
G37*
X177744Y210515D01*
X187415Y210515D01*
X177744Y214567D01*
G36*
X191466Y210515D02*
X191466Y210515D01*
X201137Y210515D01*
X191466Y214567D01*
X191466Y210515D01*
D02*
G37*
X201137Y210515D01*
X191466Y214567D01*
X191466Y210515D01*
G36*
X191466Y210515D01*
X191466Y224237D01*
X191466Y210515D01*
D02*
G37*
X191466Y224237D01*
X191466Y210515D01*
G36*
X191466Y210515D01*
X191466Y224237D01*
X191466Y200845D01*
X191466Y210515D01*
D02*
G37*
X191466Y224237D01*
X191466Y200845D01*
X191466Y210515D01*
G36*
X191466Y214567D02*
X191466Y214567D01*
X201137Y210515D01*
X201137Y214567D01*
X191466Y214567D01*
D02*
G37*
X201137Y210515D01*
X201137Y214567D01*
X191466Y214567D01*
G36*
X191466Y200845D02*
X191466Y200845D01*
X187415Y210515D01*
X187415Y200845D01*
X191466Y200845D01*
D02*
G37*
X187415Y210515D01*
X187415Y200845D01*
X191466Y200845D01*
G36*
X191715Y192655D02*
X191715Y192655D01*
X187350Y192655D01*
X187350Y179392D01*
X191715Y192655D01*
D02*
G37*
X187350Y192655D01*
X187350Y179392D01*
X191715Y192655D01*
G36*
X191715Y192655D01*
X187350Y179392D01*
X191715Y179392D01*
X191715Y192655D01*
D02*
G37*
X187350Y179392D01*
X191715Y179392D01*
X191715Y192655D01*
G36*
X191715Y332355D02*
X191715Y332355D01*
X187350Y332355D01*
X187350Y319092D01*
X191715Y332355D01*
D02*
G37*
X187350Y332355D01*
X187350Y319092D01*
X191715Y332355D01*
G36*
X191715Y332355D01*
X187350Y319092D01*
X191715Y319092D01*
X191715Y332355D01*
D02*
G37*
X187350Y319092D01*
X191715Y319092D01*
X191715Y332355D01*
G36*
X187415Y414737D02*
X187415Y414737D01*
X191466Y391345D01*
X191466Y414737D01*
X187415Y414737D01*
D02*
G37*
X191466Y391345D01*
X191466Y414737D01*
X187415Y414737D01*
G36*
X191466Y391345D02*
X191466Y391345D01*
X187415Y414737D01*
X187415Y405067D01*
X191466Y391345D01*
D02*
G37*
X187415Y414737D01*
X187415Y405067D01*
X191466Y391345D01*
G36*
X187415Y405067D02*
X187415Y405067D01*
X187415Y401015D01*
X191466Y391345D01*
X187415Y405067D01*
D02*
G37*
X187415Y401015D01*
X191466Y391345D01*
X187415Y405067D01*
G36*
X187415Y401015D02*
X187415Y401015D01*
X187415Y405067D01*
X177744Y405067D01*
X187415Y401015D01*
D02*
G37*
X187415Y405067D01*
X177744Y405067D01*
X187415Y401015D01*
G36*
X177744Y405067D02*
X177744Y405067D01*
X177744Y401015D01*
X187415Y401015D01*
X177744Y405067D01*
D02*
G37*
X177744Y401015D01*
X187415Y401015D01*
X177744Y405067D01*
G36*
X191466Y401015D02*
X191466Y401015D01*
X201137Y401015D01*
X191466Y405067D01*
X191466Y401015D01*
D02*
G37*
X201137Y401015D01*
X191466Y405067D01*
X191466Y401015D01*
G36*
X191466Y401015D01*
X191466Y414737D01*
X191466Y401015D01*
D02*
G37*
X191466Y414737D01*
X191466Y401015D01*
G36*
X191466Y401015D01*
X191466Y414737D01*
X191466Y391345D01*
X191466Y401015D01*
D02*
G37*
X191466Y414737D01*
X191466Y391345D01*
X191466Y401015D01*
G36*
X191466Y405067D02*
X191466Y405067D01*
X201137Y401015D01*
X201137Y405067D01*
X191466Y405067D01*
D02*
G37*
X201137Y401015D01*
X201137Y405067D01*
X191466Y405067D01*
G36*
X191466Y391345D02*
X191466Y391345D01*
X187415Y401015D01*
X187415Y391345D01*
X191466Y391345D01*
D02*
G37*
X187415Y401015D01*
X187415Y391345D01*
X191466Y391345D01*
G36*
X186570Y566534D02*
X186570Y566534D01*
X190621Y543142D01*
X190621Y566534D01*
X186570Y566534D01*
D02*
G37*
X190621Y543142D01*
X190621Y566534D01*
X186570Y566534D01*
G36*
X190621Y543142D02*
X190621Y543142D01*
X186570Y566534D01*
X186570Y556863D01*
X190621Y543142D01*
D02*
G37*
X186570Y566534D01*
X186570Y556863D01*
X190621Y543142D01*
G36*
X186570Y556863D02*
X186570Y556863D01*
X186570Y552812D01*
X190621Y543142D01*
X186570Y556863D01*
D02*
G37*
X186570Y552812D01*
X190621Y543142D01*
X186570Y556863D01*
G36*
X186570Y552812D02*
X186570Y552812D01*
X186570Y556863D01*
X176899Y556863D01*
X186570Y552812D01*
D02*
G37*
X186570Y556863D01*
X176899Y556863D01*
X186570Y552812D01*
G36*
X176899Y556863D02*
X176899Y556863D01*
X176899Y552812D01*
X186570Y552812D01*
X176899Y556863D01*
D02*
G37*
X176899Y552812D01*
X186570Y552812D01*
X176899Y556863D01*
G36*
X190621Y552812D02*
X190621Y552812D01*
X200292Y552812D01*
X190621Y556863D01*
X190621Y552812D01*
D02*
G37*
X200292Y552812D01*
X190621Y556863D01*
X190621Y552812D01*
G36*
X190621Y552812D01*
X190621Y566534D01*
X190621Y552812D01*
D02*
G37*
X190621Y566534D01*
X190621Y552812D01*
G36*
X190621Y552812D01*
X190621Y566534D01*
X190621Y543142D01*
X190621Y552812D01*
D02*
G37*
X190621Y566534D01*
X190621Y543142D01*
X190621Y552812D01*
G36*
X190621Y556863D02*
X190621Y556863D01*
X200292Y552812D01*
X200292Y556863D01*
X190621Y556863D01*
D02*
G37*
X200292Y552812D01*
X200292Y556863D01*
X190621Y556863D01*
G36*
X190621Y543142D02*
X190621Y543142D01*
X186570Y552812D01*
X186570Y543142D01*
X190621Y543142D01*
D02*
G37*
X186570Y552812D01*
X186570Y543142D01*
X190621Y543142D01*
G36*
X190870Y484152D02*
X190870Y484152D01*
X186505Y484152D01*
X186505Y470888D01*
X190870Y484152D01*
D02*
G37*
X186505Y484152D01*
X186505Y470888D01*
X190870Y484152D01*
G36*
X190870Y484152D01*
X186505Y470888D01*
X190870Y470888D01*
X190870Y484152D01*
D02*
G37*
X186505Y470888D01*
X190870Y470888D01*
X190870Y484152D01*
G36*
X110370Y490334D02*
X110370Y490334D01*
X114421Y466942D01*
X114421Y490334D01*
X110370Y490334D01*
D02*
G37*
X114421Y466942D01*
X114421Y490334D01*
X110370Y490334D01*
G36*
X114421Y466942D02*
X114421Y466942D01*
X110370Y490334D01*
X110370Y480663D01*
X114421Y466942D01*
D02*
G37*
X110370Y490334D01*
X110370Y480663D01*
X114421Y466942D01*
G36*
X110370Y480663D02*
X110370Y480663D01*
X110370Y476612D01*
X114421Y466942D01*
X110370Y480663D01*
D02*
G37*
X110370Y476612D01*
X114421Y466942D01*
X110370Y480663D01*
G36*
X110370Y476612D02*
X110370Y476612D01*
X110370Y480663D01*
X100699Y480663D01*
X110370Y476612D01*
D02*
G37*
X110370Y480663D01*
X100699Y480663D01*
X110370Y476612D01*
G36*
X100699Y480663D02*
X100699Y480663D01*
X100699Y476612D01*
X110370Y476612D01*
X100699Y480663D01*
D02*
G37*
X100699Y476612D01*
X110370Y476612D01*
X100699Y480663D01*
G36*
X114421Y476612D02*
X114421Y476612D01*
X124092Y476612D01*
X114421Y480663D01*
X114421Y476612D01*
D02*
G37*
X124092Y476612D01*
X114421Y480663D01*
X114421Y476612D01*
G36*
X114421Y476612D01*
X114421Y490334D01*
X114421Y476612D01*
D02*
G37*
X114421Y490334D01*
X114421Y476612D01*
G36*
X114421Y476612D01*
X114421Y490334D01*
X114421Y466942D01*
X114421Y476612D01*
D02*
G37*
X114421Y490334D01*
X114421Y466942D01*
X114421Y476612D01*
G36*
X114421Y480663D02*
X114421Y480663D01*
X124092Y476612D01*
X124092Y480663D01*
X114421Y480663D01*
D02*
G37*
X124092Y476612D01*
X124092Y480663D01*
X114421Y480663D01*
G36*
X114421Y466942D02*
X114421Y466942D01*
X110370Y476612D01*
X110370Y466942D01*
X114421Y466942D01*
D02*
G37*
X110370Y476612D01*
X110370Y466942D01*
X114421Y466942D01*
G36*
X114670Y407952D02*
X114670Y407952D01*
X110305Y407952D01*
X110305Y394688D01*
X114670Y407952D01*
D02*
G37*
X110305Y407952D01*
X110305Y394688D01*
X114670Y407952D01*
G36*
X114670Y407952D01*
X110305Y394688D01*
X114670Y394688D01*
X114670Y407952D01*
D02*
G37*
X110305Y394688D01*
X114670Y394688D01*
X114670Y407952D01*
G36*
X601435Y46437D02*
X601435Y46437D01*
X605486Y23045D01*
X605486Y46437D01*
X601435Y46437D01*
D02*
G37*
X605486Y23045D01*
X605486Y46437D01*
X601435Y46437D01*
G36*
X605486Y23045D02*
X605486Y23045D01*
X601435Y46437D01*
X601435Y36767D01*
X605486Y23045D01*
D02*
G37*
X601435Y46437D01*
X601435Y36767D01*
X605486Y23045D01*
G36*
X601435Y36767D02*
X601435Y36767D01*
X601435Y32715D01*
X605486Y23045D01*
X601435Y36767D01*
D02*
G37*
X601435Y32715D01*
X605486Y23045D01*
X601435Y36767D01*
G36*
X601435Y32715D02*
X601435Y32715D01*
X601435Y36767D01*
X591764Y36767D01*
X601435Y32715D01*
D02*
G37*
X601435Y36767D01*
X591764Y36767D01*
X601435Y32715D01*
G36*
X591764Y36767D02*
X591764Y36767D01*
X591764Y32715D01*
X601435Y32715D01*
X591764Y36767D01*
D02*
G37*
X591764Y32715D01*
X601435Y32715D01*
X591764Y36767D01*
G36*
X605486Y32715D02*
X605486Y32715D01*
X615157Y32715D01*
X605486Y36767D01*
X605486Y32715D01*
D02*
G37*
X615157Y32715D01*
X605486Y36767D01*
X605486Y32715D01*
G36*
X605486Y32715D01*
X605486Y46437D01*
X605486Y32715D01*
D02*
G37*
X605486Y46437D01*
X605486Y32715D01*
G36*
X605486Y32715D01*
X605486Y46437D01*
X605486Y23045D01*
X605486Y32715D01*
D02*
G37*
X605486Y46437D01*
X605486Y23045D01*
X605486Y32715D01*
G36*
X605486Y36767D02*
X605486Y36767D01*
X615157Y32715D01*
X615157Y36767D01*
X605486Y36767D01*
D02*
G37*
X615157Y32715D01*
X615157Y36767D01*
X605486Y36767D01*
G36*
X605486Y23045D02*
X605486Y23045D01*
X601435Y32715D01*
X601435Y23045D01*
X605486Y23045D01*
D02*
G37*
X601435Y32715D01*
X601435Y23045D01*
X605486Y23045D01*
G36*
X605735Y68195D02*
X605735Y68195D01*
X601370Y68195D01*
X601370Y54932D01*
X605735Y68195D01*
D02*
G37*
X601370Y68195D01*
X601370Y54932D01*
X605735Y68195D01*
G36*
X605735Y68195D01*
X601370Y54932D01*
X605735Y54932D01*
X605735Y68195D01*
D02*
G37*
X601370Y54932D01*
X605735Y54932D01*
X605735Y68195D01*
G36*
X514230Y89014D02*
X514230Y89014D01*
X518281Y65622D01*
X518281Y89014D01*
X514230Y89014D01*
D02*
G37*
X518281Y65622D01*
X518281Y89014D01*
X514230Y89014D01*
G36*
X518281Y65622D02*
X518281Y65622D01*
X514230Y89014D01*
X514230Y79343D01*
X518281Y65622D01*
D02*
G37*
X514230Y89014D01*
X514230Y79343D01*
X518281Y65622D01*
G36*
X514230Y79343D02*
X514230Y79343D01*
X514230Y75292D01*
X518281Y65622D01*
X514230Y79343D01*
D02*
G37*
X514230Y75292D01*
X518281Y65622D01*
X514230Y79343D01*
G36*
X514230Y75292D02*
X514230Y75292D01*
X514230Y79343D01*
X504559Y79343D01*
X514230Y75292D01*
D02*
G37*
X514230Y79343D01*
X504559Y79343D01*
X514230Y75292D01*
G36*
X504559Y79343D02*
X504559Y79343D01*
X504559Y75292D01*
X514230Y75292D01*
X504559Y79343D01*
D02*
G37*
X504559Y75292D01*
X514230Y75292D01*
X504559Y79343D01*
G36*
X518281Y75292D02*
X518281Y75292D01*
X527952Y75292D01*
X518281Y79343D01*
X518281Y75292D01*
D02*
G37*
X527952Y75292D01*
X518281Y79343D01*
X518281Y75292D01*
G36*
X518281Y75292D01*
X518281Y89014D01*
X518281Y75292D01*
D02*
G37*
X518281Y89014D01*
X518281Y75292D01*
G36*
X518281Y75292D01*
X518281Y89014D01*
X518281Y65622D01*
X518281Y75292D01*
D02*
G37*
X518281Y89014D01*
X518281Y65622D01*
X518281Y75292D01*
G36*
X518281Y79343D02*
X518281Y79343D01*
X527952Y75292D01*
X527952Y79343D01*
X518281Y79343D01*
D02*
G37*
X527952Y75292D01*
X527952Y79343D01*
X518281Y79343D01*
G36*
X518281Y65622D02*
X518281Y65622D01*
X514230Y75292D01*
X514230Y65622D01*
X518281Y65622D01*
D02*
G37*
X514230Y75292D01*
X514230Y65622D01*
X518281Y65622D01*
G36*
X518530Y57432D02*
X518530Y57432D01*
X514165Y57432D01*
X514165Y44168D01*
X518530Y57432D01*
D02*
G37*
X514165Y57432D01*
X514165Y44168D01*
X518530Y57432D01*
G36*
X518530Y57432D01*
X514165Y44168D01*
X518530Y44168D01*
X518530Y57432D01*
D02*
G37*
X514165Y44168D01*
X518530Y44168D01*
X518530Y57432D01*
G54D13*
X435336Y187120D02*
X435336Y197120D01*
X439318Y197120D01*
X441309Y195120D01*
X441309Y194120D01*
X439318Y192120D01*
X435336Y192120D01*
X436331Y192120D02*
X441309Y187120D01*
X445291Y195120D02*
X447282Y197120D01*
X447282Y187120D01*
X444296Y187120D02*
X450269Y187120D01*
X271116Y524320D02*
X275098Y524320D01*
X277089Y526320D01*
X277089Y532320D01*
X275098Y534320D01*
X271116Y534320D01*
X272111Y534320D02*
X272111Y524320D01*
X281071Y533320D02*
X282067Y534320D01*
X284058Y534320D01*
X286049Y532320D01*
X286049Y530320D01*
X285053Y529320D01*
X286049Y528320D01*
X286049Y526320D01*
X284058Y524320D01*
X282067Y524320D01*
X281071Y525320D01*
X282067Y529320D02*
X285053Y529320D01*
X315236Y525520D02*
X319218Y525520D01*
X321209Y527520D01*
X321209Y533520D01*
X319218Y535520D01*
X315236Y535520D01*
X316231Y535520D02*
X316231Y525520D01*
X324196Y533520D02*
X326187Y535520D01*
X328178Y535520D01*
X330169Y533520D01*
X330169Y532520D01*
X324196Y525520D01*
X330169Y525520D01*
X330169Y526520D01*
X362256Y525660D02*
X366238Y525660D01*
X368229Y527660D01*
X368229Y533660D01*
X366238Y535660D01*
X362256Y535660D01*
X363251Y535660D02*
X363251Y525660D01*
X372211Y533660D02*
X374202Y535660D01*
X374202Y525660D01*
X371216Y525660D02*
X377189Y525660D01*
G54D14*
X73660Y134620D02*
X99060Y134620D01*
X99060Y33020D01*
X73660Y33020D01*
X73660Y134620D01*
X73660Y226060D02*
X99060Y226060D01*
X99060Y175260D01*
X73660Y175260D01*
X73660Y226060D01*
X149860Y251460D02*
X175260Y251460D01*
X175260Y175179D01*
X149860Y175179D01*
X149860Y251460D01*
X149860Y414020D02*
X175260Y414020D01*
X175260Y312420D01*
X149860Y312420D01*
X149860Y414020D01*
X73660Y490220D02*
X99060Y490220D01*
X99060Y388620D01*
X73660Y388620D01*
X73660Y490220D01*
X149860Y566420D02*
X175260Y566420D01*
X175260Y464820D01*
X149860Y464820D01*
X149860Y566420D01*
X474980Y114337D02*
X500380Y114337D01*
X500380Y38100D01*
X474980Y38100D01*
X474980Y114337D01*
X561340Y73777D02*
X586740Y73777D01*
X586740Y22860D01*
X561340Y22860D01*
X561340Y73777D01*
X124460Y109220D02*
X175260Y109220D01*
X175260Y83820D01*
X124460Y83820D01*
X124460Y109220D01*
X267580Y521320D02*
X267580Y535320D01*
X250580Y521320D02*
X250580Y535320D01*
X267580Y521320D02*
X250580Y521320D01*
X267580Y523320D02*
X250580Y523320D01*
X267580Y525320D02*
X250580Y525320D01*
X313300Y521320D02*
X313300Y535320D01*
X296300Y521320D02*
X296300Y535320D01*
X313300Y521320D02*
X296300Y521320D01*
X313300Y523320D02*
X296300Y523320D01*
X313300Y525320D02*
X296300Y525320D01*
X359020Y521320D02*
X359020Y535320D01*
X342020Y521320D02*
X342020Y535320D01*
X359020Y521320D02*
X342020Y521320D01*
X359020Y523320D02*
X342020Y523320D01*
X359020Y525320D02*
X342020Y525320D01*
X531357Y147120D02*
X482357Y147120D01*
X482357Y249120D01*
X531357Y249120D01*
X531357Y147120D01*
G54D15*
X422910Y579120D02*
X422910Y325120D01*
X715010Y579120D02*
X422910Y579120D01*
X422910Y325120D02*
X715010Y325120D01*
X715010Y579120D01*
X214800Y473920D02*
X214800Y23920D01*
X394800Y23920D01*
X394800Y473920D01*
X299800Y473920D02*
X299819Y473484D01*
X299876Y473052D01*
X299970Y472626D01*
X300102Y472210D01*
X300268Y471807D01*
X300470Y471420D01*
X300704Y471052D01*
X300970Y470706D01*
X301264Y470384D01*
X301586Y470090D01*
X301932Y469824D01*
X302300Y469590D01*
X302687Y469388D01*
X303090Y469222D01*
X303506Y469090D01*
X303932Y468996D01*
X304364Y468939D01*
X304800Y468920D01*
X305236Y468939D01*
X305668Y468996D01*
X306094Y469090D01*
X306510Y469222D01*
X306913Y469388D01*
X307300Y469590D01*
X307668Y469824D01*
X308014Y470090D01*
X308336Y470384D01*
X308630Y470706D01*
X308896Y471052D01*
X309130Y471420D01*
X309332Y471807D01*
X309498Y472210D01*
X309630Y472626D01*
X309724Y473052D01*
X309781Y473484D01*
X309800Y473920D01*
X394800Y473920D02*
X309800Y473920D01*
X299800Y473920D02*
X214800Y473920D01*
G54D16*
X257830Y500820D02*
G75*
D01*
G02X257830Y500820I1250J0*
G01*
X303550Y500820D02*
G75*
D01*
G02X303550Y500820I1250J0*
G01*
X349270Y500820D02*
G75*
D01*
G02X349270Y500820I1250J0*
G01*
G54D17*
X500823Y256359D02*
X502268Y254907D01*
X503713Y254907D01*
X505158Y256359D01*
X505158Y260713D01*
X503713Y262164D01*
X502268Y262164D01*
X500823Y260713D01*
X500823Y256359D01*
X503713Y256359D02*
X505158Y254907D01*
X508048Y260713D02*
X509493Y262164D01*
X509493Y254907D01*
X507325Y254907D02*
X511660Y254907D01*
G54D18*
X-2540Y-2540D02*
X-2540Y57968D01*
X-2540Y-2540D02*
X72968Y-2540D01*
X752540Y-2540D02*
X677032Y-2540D01*
X752540Y-2540D02*
X752540Y57968D01*
X752540Y602540D02*
X752540Y542032D01*
X752540Y602540D02*
X677032Y602540D01*
X-2540Y602540D02*
X72968Y602540D01*
X-2540Y602540D02*
X-2540Y542032D01*
X-52540Y-2540D02*
X-152540Y-2540D01*
X-102540Y-52540D02*
X-102540Y47460D01*
X-140040Y-2540D02*
G75*
D01*
G02X-140040Y-2540I37500J0*
G01*
X802540Y-2540D02*
X902540Y-2540D01*
X852540Y-52540D02*
X852540Y47460D01*
X815040Y-2540D02*
G75*
D01*
G02X815040Y-2540I37500J0*
G01*
X840040Y-2540D02*
G75*
D01*
G02X840040Y-2540I12500J0*
G01*
X-52540Y602540D02*
X-152540Y602540D01*
X-102540Y552540D02*
X-102540Y652540D01*
X-140040Y602540D02*
G75*
D01*
G02X-140040Y602540I37500J0*
G01*
X-127540Y602540D02*
G75*
D01*
G02X-127540Y602540I25000J0*
G01*
X-115040Y602540D02*
G75*
D01*
G02X-115040Y602540I12500J0*
G01*

M02*
