M48
METRIC,TZ
VER,1
FMAT,2
DETECT,ON
ATC,ON
T1C3.2000
T2C1.0000
T3C1.3208
%
T1
X35560Y35560
Y563880
X716280Y35560
X609600Y563880
T2
X441960Y528320
Y502920
Y477520
Y452120
Y426720
Y401320
Y375920
Y350520
X695960Y452120
X441960Y553720
X695960
Y528320
Y502920
Y477520
X228600Y426720
Y401320
Y375920
Y350520
Y325120
Y299720
Y274320
Y248920
Y223520
Y198120
Y172720
Y147320
Y121920
Y96520
Y71120
X381000Y426720
Y401320
Y375920
Y350520
Y325120
Y299720
Y274320
Y248920
Y223520
Y198120
Y172720
Y147320
Y121920
Y96520
Y71120
X86360Y45720
Y71120
Y96520
Y121920
X574040Y35560
Y60960
X137160Y96520
X162560
Y187960
Y213360
Y238760
X86360Y187960
Y213360
X162560Y325120
Y350520
Y375920
Y401320
X86360Y477520
Y452120
Y426720
Y401320
X162560Y477520
Y502920
Y528320
Y553720
X487680Y50800
Y76200
Y101600
X695960Y274320
X670560
X619760
X645160
X568960
X594360
X568960Y248920
X594360
X619760
X645160
X670560
X695960
X568960Y299720
X594360
X619760
X645160
X670560
X695960
X568960Y223520
X594360
X619760
X645160
X670560
X695960
X594360Y198120
X619760
X645160
X670560
X695960
X619760Y172720
X645160
X670560
X695960
T3
X513080Y198120
Y223520
Y172720
M30
