G04 Generated by Ultiboard 14.2 *
%FSLAX34Y34*%
%MOMM*%

%ADD10C,0.0001*%
%ADD11C,0.1270*%
%ADD12C,3.2000*%
%ADD13C,1.7000*%
%ADD14C,1.5000*%
%ADD15R,1.7000X1.7000*%


G04 ColorRGB 9900CC for the following layer *
%LNL_uc100f6tstoppmaske unten*%
%LPD*%
G54D10*
G54D11*
X-2540Y-2540D02*
X-2540Y56388D01*
X-2540Y-2540D02*
X63500Y-2540D01*
X657860Y-2540D02*
X591820Y-2540D01*
X657860Y-2540D02*
X657860Y56388D01*
X657860Y586740D02*
X657860Y527812D01*
X657860Y586740D02*
X591820Y586740D01*
X-2540Y586740D02*
X63500Y586740D01*
X-2540Y586740D02*
X-2540Y527812D01*
X-52540Y-2540D02*
X-152540Y-2540D01*
X-102540Y-52540D02*
X-102540Y47460D01*
X-140040Y-2540D02*
G75*
D01*
G02X-140040Y-2540I37500J0*
G01*
X707860Y-2540D02*
X807860Y-2540D01*
X757860Y-52540D02*
X757860Y47460D01*
X720360Y-2540D02*
G75*
D01*
G02X720360Y-2540I37500J0*
G01*
X745360Y-2540D02*
G75*
D01*
G02X745360Y-2540I12500J0*
G01*
X-52540Y586740D02*
X-152540Y586740D01*
X-102540Y536740D02*
X-102540Y636740D01*
X-140040Y586740D02*
G75*
D01*
G02X-140040Y586740I37500J0*
G01*
X-127540Y586740D02*
G75*
D01*
G02X-127540Y586740I25000J0*
G01*
X-115040Y586740D02*
G75*
D01*
G02X-115040Y586740I12500J0*
G01*
G54D12*
X35560Y551180D03*
X93980Y35560D03*
X566420Y543560D03*
X619760Y35560D03*
G54D13*
X81280Y86360D03*
X106680Y86360D03*
X35560Y35560D03*
X35560Y60960D03*
X35560Y86360D03*
X35560Y111760D03*
X60960Y213360D03*
X60960Y238760D03*
X60960Y264160D03*
X60960Y289560D03*
X60960Y340360D03*
X60960Y365760D03*
X60960Y391160D03*
X60960Y416560D03*
X365760Y518160D03*
X365760Y492760D03*
X365760Y467360D03*
X365760Y441960D03*
X365760Y416560D03*
X365760Y391160D03*
X365760Y365760D03*
X365760Y340360D03*
X619760Y441960D03*
X619760Y543560D03*
X619760Y518160D03*
X619760Y492760D03*
X619760Y467360D03*
G54D14*
X152400Y416560D03*
X152400Y391160D03*
X152400Y365760D03*
X152400Y340360D03*
X152400Y314960D03*
X152400Y289560D03*
X152400Y264160D03*
X152400Y238760D03*
X152400Y213360D03*
X152400Y187960D03*
X152400Y162560D03*
X152400Y137160D03*
X152400Y111760D03*
X152400Y86360D03*
X152400Y60960D03*
X304800Y416560D03*
X304800Y391160D03*
X304800Y365760D03*
X304800Y340360D03*
X304800Y314960D03*
X304800Y289560D03*
X304800Y264160D03*
X304800Y238760D03*
X304800Y213360D03*
X304800Y187960D03*
X304800Y162560D03*
X304800Y137160D03*
X304800Y111760D03*
X304800Y86360D03*
X304800Y60960D03*
G54D15*
X365760Y543560D03*

M02*
