M48
METRIC,TZ
VER,1
FMAT,2
DETECT,ON
ATC,ON
T1C3.2000
T2C1.0000
%
T1
X35560Y551180
X93980Y35560
X566420Y543560
X619760Y35560
T2
X81280Y86360
X106680
X152400Y416560
Y391160
Y365760
Y340360
Y314960
Y289560
Y264160
Y238760
Y213360
Y187960
Y162560
Y137160
Y111760
Y86360
Y60960
X304800Y416560
Y391160
Y365760
Y340360
Y314960
Y289560
Y264160
Y238760
Y213360
Y187960
Y162560
Y137160
Y111760
Y86360
Y60960
X35560Y35560
Y60960
Y86360
Y111760
X60960Y213360
Y238760
Y264160
Y289560
Y340360
Y365760
Y391160
Y416560
X365760Y518160
Y492760
Y467360
Y441960
Y416560
Y391160
Y365760
Y340360
X619760Y441960
X365760Y543560
X619760
Y518160
Y492760
Y467360
M30
